<?xml version="1.0" standalone="no"?>
<!DOCTYPE svg PUBLIC "-//W3C//DTD SVG 20010904//EN"
 "http://www.w3.org/TR/2001/REC-SVG-20010904/DTD/svg10.dtd">
<svg version="1.0" xmlns="http://www.w3.org/2000/svg"
 width="256.000000pt" height="256.000000pt" viewBox="0 0 256.000000 256.000000"
 preserveAspectRatio="xMidYMid meet">

<g transform="translate(0.000000,256.000000) scale(0.100000,-0.100000)"
fill="#000000" stroke="none">
<path d="M1037 2530 c-46 -14 -93 -56 -116 -103 -20 -42 -21 -58 -21 -415 l0
-371 -347 -3 c-317 -3 -351 -5 -383 -22 -49 -26 -98 -74 -123 -121 -22 -40
-22 -43 -22 -665 0 -590 1 -627 19 -660 26 -49 74 -98 121 -123 39 -22 50 -22
517 -25 469 -3 478 -2 498 18 25 25 26 54 0 80 -19 19 -33 20 -472 20 -499 0
-496 0 -542 63 -21 28 -21 37 -21 627 0 590 0 599 21 627 47 65 29 63 669 63
561 0 581 -1 613 -20 18 -11 41 -34 52 -52 19 -32 20 -52 20 -523 0 -528 2
-550 54 -653 13 -26 38 -65 56 -87 l32 -40 -35 -3 c-53 -5 -108 14 -175 58
-68 45 -84 48 -112 20 -45 -45 -7 -101 108 -157 l76 -38 187 -3 c181 -4 188
-3 209 18 14 14 20 31 18 48 -2 22 -16 34 -74 64 -88 47 -164 125 -196 206
-22 54 -23 71 -26 370 l-3 312 184 0 c207 0 254 9 333 63 l48 34 44 -33 c53
-41 127 -64 207 -64 103 0 124 48 56 129 -38 46 -74 109 -94 166 -7 19 -13
218 -17 552 l-5 521 -30 43 c-16 23 -50 53 -74 66 l-44 23 -591 -1 c-325 0
-604 -5 -619 -9z m943 -610 c11 -11 20 -29 20 -40 0 -11 -9 -29 -20 -40 -19
-19 -33 -20 -330 -20 -297 0 -311 1 -330 20 -11 11 -20 29 -20 40 0 11 9 29
20 40 19 19 33 20 330 20 297 0 311 -1 330 -20z m0 -300 c11 -11 20 -29 20
-40 0 -11 -9 -29 -20 -40 -18 -18 -33 -20 -130 -20 -97 0 -112 2 -130 20 -11
11 -20 29 -20 40 0 11 9 29 20 40 18 18 33 20 130 20 97 0 112 -2 130 -20z"/>
<path d="M482 1024 c-27 -19 -29 -64 -4 -87 16 -15 54 -17 330 -17 299 0 313
1 332 20 25 25 26 62 2 83 -16 15 -54 17 -328 17 -264 0 -313 -2 -332 -16z"/>
<path d="M480 720 c-25 -25 -26 -62 -2 -83 16 -15 45 -17 200 -17 169 0 183 1
202 20 25 25 26 62 2 83 -16 15 -45 17 -200 17 -169 0 -183 -1 -202 -20z"/>
<path d="M1057 722 c-10 -10 -17 -28 -17 -40 0 -27 33 -62 58 -62 31 0 62 29
62 59 0 54 -68 82 -103 43z"/>
<path d="M2100 120 c-11 -11 -20 -29 -20 -40 0 -26 34 -60 60 -60 26 0 60 34
60 60 0 26 -34 60 -60 60 -11 0 -29 -9 -40 -20z"/>
</g>
</svg>
